<?xml version="1.0" encoding="UTF-8"?>
<!DOCTYPE svg PUBLIC "-//W3C//DTD SVG 1.1//EN" "http://www.w3.org/Graphics/SVG/1.1/DTD/svg11.dtd">
<svg xmlns="http://www.w3.org/2000/svg" version="1.1" width="154px" height="32px" style="shape-rendering:geometricPrecision; text-rendering:geometricPrecision; image-rendering:optimizeQuality; fill-rule:evenodd; clip-rule:evenodd" xmlns:xlink="http://www.w3.org/1999/xlink">
<g><path style="opacity:1" fill="#fcfcfc" d="M -0.5,-0.5 C 50.8333,-0.5 102.167,-0.5 153.5,-0.5C 153.5,10.1667 153.5,20.8333 153.5,31.5C 102.167,31.5 50.8333,31.5 -0.5,31.5C -0.5,20.8333 -0.5,10.1667 -0.5,-0.5 Z"/></g>
<g><path style="opacity:1" fill="#0e0e0e" d="M 24.5,1.5 C 28.7045,1.42226 31.0378,3.42226 31.5,7.5C 31.0589,11.804 28.8922,13.4707 25,12.5C 24.8214,15.5535 24.3214,18.5535 23.5,21.5C 22.914,21.2907 22.414,20.9574 22,20.5C 21.7595,15.295 21.2595,10.1283 20.5,5C 21.3471,3.2294 22.6805,2.06273 24.5,1.5 Z"/></g>
<g><path style="opacity:1" fill="#e3e3e3" d="M 24.5,4.5 C 29.5126,6.11281 29.6792,8.44614 25,11.5C 23.9525,9.07944 23.7858,6.74611 24.5,4.5 Z"/></g>
<g><path style="opacity:1" fill="#101010" d="M 68.5,4.5 C 69.1174,4.61071 69.6174,4.94404 70,5.5C 70.1858,7.90049 70.6858,10.2338 71.5,12.5C 73.4219,11.289 75.2552,9.95566 77,8.5C 77.8699,9.1079 78.3699,9.94123 78.5,11C 77.2011,12.3264 75.8678,13.6598 74.5,15C 78.8923,16.8664 82.559,19.6997 85.5,23.5C 84.635,24.5827 83.635,24.7494 82.5,24C 79.22,21.1385 75.72,18.6385 72,16.5C 71.7811,17.938 71.2811,19.2713 70.5,20.5C 69.914,20.2907 69.414,19.9574 69,19.5C 67.2242,14.5348 67.0576,9.53481 68.5,4.5 Z"/></g>
<g><path style="opacity:1" fill="#0b0b0b" d="M 90.5,10.5 C 93.5184,10.3354 96.5184,10.502 99.5,11C 100.935,13.6588 101.935,16.4921 102.5,19.5C 101.635,20.5827 100.635,20.7494 99.5,20C 98.8903,18.0528 98.0569,16.2194 97,14.5C 96.9489,17.2766 96.7822,19.9433 96.5,22.5C 95.5224,22.0233 94.6891,21.3567 94,20.5C 93.5034,18.1902 93.3367,15.8568 93.5,13.5C 90.5065,13.8543 89.5065,12.8543 90.5,10.5 Z"/></g>
<g><path style="opacity:1" fill="#0a0a0a" d="M 124.5,4.5 C 125.117,4.61071 125.617,4.94404 126,5.5C 126.497,7.80982 126.663,10.1432 126.5,12.5C 133.018,13.5557 133.018,14.889 126.5,16.5C 127.167,18.5 127.833,20.5 128.5,22.5C 127.349,23.731 126.183,23.731 125,22.5C 124.338,20.1873 123.838,17.854 123.5,15.5C 117.182,13.4938 115.849,15.4938 119.5,21.5C 113.397,25.6919 108.73,24.3586 105.5,17.5C 108.354,13.3152 112.354,10.9819 117.5,10.5C 119.173,12.0863 121.173,12.7529 123.5,12.5C 123.279,9.72116 123.612,7.05449 124.5,4.5 Z"/></g>
<g><path style="opacity:1" fill="#101010" d="M 57.5,9.5 C 59.9775,9.05078 61.9775,9.71745 63.5,11.5C 60.5456,12.6247 57.5456,13.6247 54.5,14.5C 55.7059,16.5159 55.7059,18.5159 54.5,20.5C 53.0295,19.6195 52.1962,18.2861 52,16.5C 51.1376,18.087 50.4709,19.7536 50,21.5C 49.2753,22.0585 48.4419,22.3918 47.5,22.5C 43.5881,21.3039 39.7547,19.9706 36,18.5C 35.1528,15.5509 35.9861,13.2176 38.5,11.5C 41.3709,13.544 44.0375,15.8773 46.5,18.5C 47.4803,17.0186 48.647,15.6853 50,14.5C 50.3333,14.8333 50.6667,15.1667 51,15.5C 51.2734,13.8988 51.7734,12.3988 52.5,11C 54.3817,10.8019 56.0484,10.3019 57.5,9.5 Z"/></g>
<g><path style="opacity:1" fill="#0e0e0e" d="M 86.5,11.5 C 87.7899,12.0577 88.6232,13.0577 89,14.5C 89.2695,17.2241 89.7695,19.8908 90.5,22.5C 89.3493,23.731 88.1827,23.731 87,22.5C 86.0935,18.7403 85.9268,15.0736 86.5,11.5 Z"/></g>
<g><path style="opacity:1" fill="#0b0b0b" d="M 139.5,12.5 C 140.822,12.33 141.989,12.6634 143,13.5C 143.771,19.0685 141.271,21.9019 135.5,22C 139.943,23.9403 144.61,24.9403 149.5,25C 149.957,25.414 150.291,25.914 150.5,26.5C 142.09,28.8622 134.923,26.8622 129,20.5C 128.956,17.2173 129.956,16.884 132,19.5C 133.767,16.228 136.267,13.8947 139.5,12.5 Z"/></g>
<g><path style="opacity:1" fill="#f2f2f2" d="M 111.5,15.5 C 113.256,16.5521 113.923,18.2188 113.5,20.5C 109.189,20.2153 108.522,18.5487 111.5,15.5 Z"/></g>
<g><path style="opacity:1" fill="#c0c0c0" d="M 38.5,15.5 C 40.9828,15.73 41.4828,16.3966 40,17.5C 38.9701,17.1639 38.4701,16.4972 38.5,15.5 Z"/></g>
<g><path style="opacity:1" fill="#d0d0d0" d="M 137.5,16.5 C 139.975,16.7467 139.975,17.4134 137.5,18.5C 136.537,18.0302 136.537,17.3635 137.5,16.5 Z"/></g>
</svg>
