<?xml version="1.0" encoding="UTF-8"?>
<svg xmlns="http://www.w3.org/2000/svg" xmlns:xlink="http://www.w3.org/1999/xlink" width="24px" height="24px" viewBox="0 0 24 24" version="1.1">
<g id="surface1">
<path style=" stroke:none;fill-rule:nonzero;fill:rgb(0%,0%,0%);fill-opacity:1;" d="M 22.773438 12.222656 L 21.960938 12.222656 L 21.960938 11.316406 C 21.960938 10.878906 21.609375 10.527344 21.171875 10.527344 C 20.734375 10.527344 20.378906 10.878906 20.378906 11.316406 L 20.378906 11.546875 L 19.605469 11.550781 C 19.480469 9.824219 18.824219 8.246094 17.804688 6.972656 L 18.480469 6.296875 L 18.464844 6.285156 L 18.695312 6.285156 C 19.132812 6.285156 19.488281 5.929688 19.488281 5.492188 C 19.488281 5.058594 19.132812 4.703125 18.695312 4.703125 L 17.882812 4.703125 L 17.882812 3.796875 C 17.882812 3.359375 17.53125 3.003906 17.09375 3.003906 C 16.65625 3.003906 16.300781 3.359375 16.300781 3.796875 L 16.300781 5.492188 C 16.300781 5.503906 16.304688 5.511719 16.304688 5.519531 C 15.113281 4.625 13.671875 4.039062 12.109375 3.890625 L 12.109375 3.277344 L 12.167969 3.277344 C 12.605469 3.277344 12.957031 2.925781 12.957031 2.488281 C 12.957031 2.050781 12.605469 1.699219 12.167969 1.699219 L 11.355469 1.699219 L 11.355469 0.789062 C 11.355469 0.355469 11 0 10.5625 0 C 10.125 0 9.773438 0.355469 9.773438 0.789062 L 9.773438 2.488281 C 9.773438 2.914062 10.109375 3.257812 10.527344 3.277344 L 10.527344 3.890625 C 8.984375 4.039062 7.566406 4.605469 6.382812 5.480469 C 6.277344 5.171875 5.984375 4.949219 5.636719 4.949219 L 4.824219 4.949219 L 4.824219 4.042969 C 4.824219 3.605469 4.472656 3.25 4.035156 3.25 C 3.597656 3.25 3.242188 3.605469 3.242188 4.042969 L 3.242188 5.738281 C 3.242188 6.175781 3.597656 6.53125 4.035156 6.53125 L 4.386719 6.53125 L 4.832031 6.976562 C 3.8125 8.25 3.15625 9.828125 3.03125 11.550781 L 2.015625 11.554688 L 2.015625 11.496094 C 2.015625 11.058594 1.664062 10.703125 1.226562 10.703125 C 0.789062 10.703125 0.433594 11.058594 0.433594 11.496094 L 0.433594 13.191406 C 0.433594 13.628906 0.789062 13.984375 1.226562 13.984375 L 2.828125 13.984375 C 2.957031 13.984375 3.082031 13.949219 3.1875 13.894531 C 3.480469 15.269531 4.113281 16.519531 4.996094 17.550781 L 4.8125 17.734375 C 4.78125 17.730469 4.75 17.730469 4.71875 17.730469 C 4.28125 17.730469 3.925781 18.082031 3.925781 18.519531 L 3.925781 20.214844 C 3.925781 20.652344 4.28125 21.007812 4.71875 21.007812 L 6.320312 21.007812 C 6.757812 21.007812 7.109375 20.652344 7.109375 20.214844 C 7.109375 19.78125 6.757812 19.425781 6.320312 19.425781 L 5.507812 19.425781 L 5.507812 19.273438 L 6.128906 18.652344 C 6.703125 19.113281 7.339844 19.496094 8.023438 19.792969 L 6.980469 22.960938 C 6.8125 23.472656 7.191406 24 7.730469 24 L 14.90625 24 C 15.441406 24 15.824219 23.472656 15.65625 22.960938 L 14.613281 19.792969 C 15.296875 19.496094 15.9375 19.109375 16.511719 18.648438 L 17.246094 19.382812 L 17.246094 19.746094 C 17.246094 20.183594 17.597656 20.535156 18.035156 20.535156 L 19.640625 20.535156 C 20.074219 20.535156 20.429688 20.183594 20.429688 19.746094 C 20.429688 19.308594 20.074219 18.953125 19.640625 18.953125 L 18.828125 18.953125 L 18.828125 18.046875 C 18.828125 17.609375 18.472656 17.257812 18.035156 17.257812 C 17.976562 17.257812 17.921875 17.265625 17.867188 17.277344 C 18.78125 16.105469 19.390625 14.683594 19.570312 13.128906 L 20.390625 13.128906 C 20.445312 13.511719 20.773438 13.804688 21.171875 13.804688 L 22.773438 13.804688 C 23.210938 13.804688 23.566406 13.449219 23.566406 13.015625 C 23.566406 12.578125 23.210938 12.222656 22.773438 12.222656 Z M 15.578125 6.960938 L 13.3125 9.230469 C 12.953125 8.984375 12.546875 8.804688 12.109375 8.707031 L 12.109375 5.484375 C 13.417969 5.636719 14.609375 6.167969 15.578125 6.960938 Z M 11.316406 10.199219 C 12.402344 10.199219 13.285156 11.082031 13.285156 12.164062 C 13.285156 13.199219 12.480469 14.054688 11.457031 14.125 C 10.3125 14.207031 9.351562 13.296875 9.351562 12.164062 C 9.351562 11.082031 10.234375 10.199219 11.316406 10.199219 Z M 12.609375 18.769531 C 12.191406 18.851562 11.761719 18.894531 11.316406 18.894531 C 10.875 18.894531 10.445312 18.851562 10.023438 18.769531 L 11.035156 15.703125 C 11.210938 15.714844 11.40625 15.71875 11.601562 15.703125 Z M 10.527344 5.484375 L 10.527344 8.707031 C 10.089844 8.804688 9.683594 8.984375 9.324219 9.230469 L 7.054688 6.960938 C 8.027344 6.167969 9.21875 5.636719 10.527344 5.484375 Z M 5.957031 8.101562 L 8.246094 10.390625 C 8.042969 10.742188 7.894531 11.132812 7.824219 11.550781 L 4.617188 11.550781 C 4.734375 10.261719 5.214844 9.078125 5.957031 8.101562 Z M 6.117188 16.429688 C 5.355469 15.503906 4.839844 14.371094 4.660156 13.132812 L 7.90625 13.132812 C 8.007812 13.503906 8.171875 13.847656 8.382812 14.160156 Z M 7.257812 17.527344 L 9.511719 15.269531 L 8.519531 18.285156 C 8.070312 18.078125 7.644531 17.824219 7.257812 17.527344 Z M 8.824219 22.417969 L 9.527344 20.28125 C 10.105469 20.40625 10.703125 20.476562 11.316406 20.476562 C 11.933594 20.476562 12.53125 20.40625 13.109375 20.28125 L 13.8125 22.417969 Z M 14.117188 18.285156 L 13.121094 15.257812 L 15.382812 17.523438 C 14.992188 17.820312 14.566406 18.078125 14.117188 18.285156 Z M 16.523438 16.425781 L 14.253906 14.15625 C 14.464844 13.847656 14.628906 13.5 14.730469 13.132812 L 17.976562 13.132812 C 17.796875 14.367188 17.28125 15.5 16.523438 16.425781 Z M 14.8125 11.550781 C 14.738281 11.132812 14.59375 10.742188 14.390625 10.390625 L 16.675781 8.101562 C 17.417969 9.078125 17.902344 10.261719 18.019531 11.550781 Z M 14.8125 11.550781 "/>
</g>
</svg>
